<?xml version="1.0" ?><!DOCTYPE svg  PUBLIC '-//W3C//DTD SVG 1.1//EN'  'http://www.w3.org/Graphics/SVG/1.1/DTD/svg11.dtd'><svg enable-background="new 0 0 200 200" height="200px" id="Layer_1" version="1.1" viewBox="0 0 200 200" width="200px" xml:space="preserve" xmlns="http://www.w3.org/2000/svg" xmlns:xlink="http://www.w3.org/1999/xlink"><g><g><g><g><g><path d="M43.86,128.63       c-9.141-5.87-15.19-16.13-15.19-27.81c0-18.26,14.811-33.07,33.07-33.07c0.46,0,0.92,0.01,1.37,0.029       C63.92,50.25,78.41,36.34,96.14,36.34c10.4,0,19.67,4.811,25.73,12.33" fill="none" stroke="#000000" stroke-miterlimit="10" stroke-width="6"/><path d="M153.24,78.32c5.529,5.9,8.91,13.84,8.91,22.57       c0,11.649-6.03,21.869-15.131,27.739" fill="none" stroke="#000000" stroke-miterlimit="10" stroke-width="6"/><line fill="none" stroke="#000000" stroke-linecap="round" stroke-miterlimit="10" stroke-width="6" x1="147" x2="43" y1="128" y2="128"/></g><g><path d="M121.87,48.67       c4.28,5.301,6.96,11.95,7.3,19.21c9.5,0,18.061,4.011,24.07,10.44" fill="none" stroke="#000000" stroke-linecap="round" stroke-miterlimit="10" stroke-width="6"/></g></g></g><path d="M155.49,81.01c9.4-4.31,15.93-13.8,15.93-24.81    c0-15.07-12.22-27.29-27.29-27.29c-11.29,0-20.979,6.859-25.13,16.64" fill="none" stroke="#000000" stroke-miterlimit="10" stroke-width="6"/></g><g><g><circle cx="54.643" cy="141.619" fill="none" r="3.663" stroke="#000000" stroke-linecap="round" stroke-miterlimit="10" stroke-width="2"/><circle cx="95.643" cy="141.619" fill="none" r="3.663" stroke="#000000" stroke-linecap="round" stroke-miterlimit="10" stroke-width="2"/><circle cx="136.643" cy="141.619" fill="none" r="3.663" stroke="#000000" stroke-linecap="round" stroke-miterlimit="10" stroke-width="2"/></g><g><circle cx="54.643" cy="173.619" fill="none" r="3.663" stroke="#000000" stroke-linecap="round" stroke-miterlimit="10" stroke-width="2"/><circle cx="95.643" cy="173.619" fill="none" r="3.663" stroke="#000000" stroke-linecap="round" stroke-miterlimit="10" stroke-width="2"/><circle cx="136.643" cy="173.619" fill="none" r="3.663" stroke="#000000" stroke-linecap="round" stroke-miterlimit="10" stroke-width="2"/></g><g><circle cx="74.643" cy="157.619" fill="none" r="3.663" stroke="#000000" stroke-linecap="round" stroke-miterlimit="10" stroke-width="2"/><circle cx="115.643" cy="157.619" fill="none" r="3.663" stroke="#000000" stroke-linecap="round" stroke-miterlimit="10" stroke-width="2"/></g></g></g></svg>