<?xml version="1.0" ?><!DOCTYPE svg  PUBLIC '-//W3C//DTD SVG 1.1//EN'  'http://www.w3.org/Graphics/SVG/1.1/DTD/svg11.dtd'><svg enable-background="new 0 0 200 200" height="200px" id="Layer_1" version="1.1" viewBox="0 0 200 200" width="200px" xml:space="preserve" xmlns="http://www.w3.org/2000/svg" xmlns:xlink="http://www.w3.org/1999/xlink"><g><g><g><path d="M166.16,170     c11.885-7.672,19.749-21.011,19.749-36.223c0-23.799-19.263-43.082-43.044-43.082c-1.09-22.931-19.979-41.171-43.12-41.171     c-23.151,0-42.06,18.154-43.12,41.038c-0.592-0.029-1.185-0.039-1.787-0.039c-23.84,0-43.168,19.33-43.168,43.167     c0,15.24,7.901,28.637,19.826,36.309" fill="none" stroke="#000000" stroke-miterlimit="10" stroke-width="6"/><line fill="none" stroke="#000000" stroke-linecap="round" stroke-miterlimit="10" stroke-width="6" x1="166" x2="31" y1="170" y2="170"/></g><path d="M116.5,52.9    c7.18-11.64,20.05-19.4,34.72-19.4c5.36,0,10.471,1.03,15.15,2.91" fill="none" stroke="#000000" stroke-linecap="round" stroke-miterlimit="10" stroke-width="6"/><path d="M176.17,106.471    c6.41-4.971,11.3-11.811,13.84-19.711" fill="none" stroke="#000000" stroke-linecap="round" stroke-miterlimit="10" stroke-width="6"/></g><path d="M166.37,36.41   c-5.8,5.32-9.43,12.97-9.43,21.47c0,16.1,13.05,29.15,29.159,29.15c1.33,0,2.631-0.09,3.91-0.27" fill="none" stroke="#000000" stroke-linecap="round" stroke-miterlimit="10" stroke-width="6"/></g></svg>