<?xml version="1.0" ?><!DOCTYPE svg  PUBLIC '-//W3C//DTD SVG 1.1//EN'  'http://www.w3.org/Graphics/SVG/1.1/DTD/svg11.dtd'><svg enable-background="new 0 0 200 200" height="200px" id="Layer_1" version="1.1" viewBox="0 0 200 200" width="200px" xml:space="preserve" xmlns="http://www.w3.org/2000/svg" xmlns:xlink="http://www.w3.org/1999/xlink"><g><g><g><g><path d="M46.86,118.63      c-9.141-5.87-15.19-16.13-15.19-27.81c0-18.26,14.811-33.07,33.07-33.07c0.46,0,0.92,0.01,1.37,0.029      C66.92,40.25,81.41,26.34,99.14,26.34c10.4,0,19.67,4.811,25.73,12.33" fill="none" stroke="#000000" stroke-miterlimit="10" stroke-width="6"/><path d="M156.24,68.32c5.529,5.9,8.91,13.84,8.91,22.57      c0,11.649-6.03,21.869-15.131,27.739" fill="none" stroke="#000000" stroke-miterlimit="10" stroke-width="6"/><line fill="none" stroke="#000000" stroke-linecap="round" stroke-miterlimit="10" stroke-width="6" x1="150" x2="46" y1="118" y2="118"/></g><g><path d="M124.87,38.67      c4.28,5.301,6.96,11.95,7.3,19.21c9.5,0,18.061,4.011,24.07,10.44" fill="none" stroke="#000000" stroke-linecap="round" stroke-miterlimit="10" stroke-width="6"/><path d="M156.24,68.32      c5.689-1.641,10.54-5.23,13.779-10.01" fill="none" stroke="#000000" stroke-linecap="round" stroke-miterlimit="10" stroke-width="6"/><path d="M124.87,38.67      c2.53-11.15,12.5-19.47,24.42-19.47c5.04,0,9.729,1.489,13.66,4.06" fill="none" stroke="#000000" stroke-linecap="round" stroke-miterlimit="10" stroke-width="6"/><path d="M162.95,23.256      c-8.132,1.674-14.247,8.873-14.247,17.506c0,9.875,8.007,17.876,17.877,17.876c1.181,0,2.327-0.116,3.443-0.332" fill="none" stroke="#000000" stroke-linecap="round" stroke-miterlimit="10" stroke-width="6"/></g></g></g><g><polyline fill="none" points="83.194,125.332     72.508,158.052 89.282,150.479 80.895,183.999   " stroke="#000000" stroke-linecap="round" stroke-miterlimit="10" stroke-width="6"/><polyline fill="none" points="117.791,125.332     109.508,150.691 122.509,144.822 116.008,170.802   " stroke="#000000" stroke-linecap="round" stroke-miterlimit="10" stroke-width="6"/></g></g></svg>