<?xml version="1.0" ?><!DOCTYPE svg  PUBLIC '-//W3C//DTD SVG 1.1//EN'  'http://www.w3.org/Graphics/SVG/1.1/DTD/svg11.dtd'><svg enable-background="new 0 0 200 200" height="200px" id="Layer_1" version="1.1" viewBox="0 0 200 200" width="200px" xml:space="preserve" xmlns="http://www.w3.org/2000/svg" xmlns:xlink="http://www.w3.org/1999/xlink"><g><g><g><path d="M49.86,124.63     c-9.141-5.87-15.19-16.13-15.19-27.81c0-18.26,14.811-33.07,33.07-33.07c0.46,0,0.92,0.01,1.37,0.029     C69.92,46.25,84.41,32.34,102.14,32.34c10.4,0,19.67,4.811,25.73,12.33" fill="none" stroke="#000000" stroke-miterlimit="10" stroke-width="6"/><path d="M159.24,74.32c5.529,5.9,8.91,13.84,8.91,22.57     c0,11.649-6.03,21.869-15.131,27.739" fill="none" stroke="#000000" stroke-miterlimit="10" stroke-width="6"/><line fill="none" stroke="#000000" stroke-linecap="round" stroke-miterlimit="10" stroke-width="6" x1="153" x2="49" y1="124" y2="124"/></g><g><path d="M127.87,44.67     c4.28,5.301,6.96,11.95,7.3,19.21c9.5,0,18.061,4.011,24.07,10.44" fill="none" stroke="#000000" stroke-linecap="round" stroke-miterlimit="10" stroke-width="6"/></g><line fill="none" stroke="#000000" stroke-linecap="round" stroke-miterlimit="10" stroke-width="6" x1="116" x2="116" y1="134" y2="171"/><line fill="none" stroke="#000000" stroke-linecap="round" stroke-miterlimit="10" stroke-width="6" x1="137" x2="137" y1="134" y2="157"/><line fill="none" stroke="#000000" stroke-linecap="round" stroke-miterlimit="10" stroke-width="6" x1="71" x2="71" y1="134" y2="171"/><line fill="none" stroke="#000000" stroke-linecap="round" stroke-miterlimit="10" stroke-width="6" x1="92" x2="92" y1="134" y2="157"/></g></g></svg>