<?xml version="1.0" ?><!DOCTYPE svg  PUBLIC '-//W3C//DTD SVG 1.1//EN'  'http://www.w3.org/Graphics/SVG/1.1/DTD/svg11.dtd'><svg enable-background="new 0 0 200 200" height="200px" id="Layer_1" version="1.1" viewBox="0 0 200 200" width="200px" xml:space="preserve" xmlns="http://www.w3.org/2000/svg" xmlns:xlink="http://www.w3.org/1999/xlink"><g><g><path d="M165.16,170    c11.885-7.672,19.749-21.011,19.749-36.223c0-23.799-19.263-43.082-43.044-43.082c-1.09-22.931-19.979-41.171-43.12-41.171    c-23.151,0-42.06,18.154-43.12,41.038c-0.592-0.029-1.185-0.039-1.787-0.039c-23.84,0-43.168,19.33-43.168,43.167    c0,15.24,7.901,28.637,19.826,36.309" fill="none" stroke="#000000" stroke-miterlimit="10" stroke-width="6"/><line fill="none" stroke="#000000" stroke-linecap="round" stroke-miterlimit="10" stroke-width="6" x1="165" x2="30" y1="170" y2="170"/></g><path d="M175.17,106.471   c9.609-7.451,15.801-19.111,15.801-32.221c0-22.51-18.24-40.75-40.75-40.75c-14.671,0-27.541,7.76-34.721,19.4" fill="none" stroke="#000000" stroke-linecap="round" stroke-miterlimit="10" stroke-width="6"/></g></svg>