<?xml version="1.0" ?><!DOCTYPE svg  PUBLIC '-//W3C//DTD SVG 1.1//EN'  'http://www.w3.org/Graphics/SVG/1.1/DTD/svg11.dtd'><svg enable-background="new 0 0 200 200" height="200px" id="Layer_1" version="1.1" viewBox="0 0 200 200" width="200px" xml:space="preserve" xmlns="http://www.w3.org/2000/svg" xmlns:xlink="http://www.w3.org/1999/xlink"><g><g><g><g><g><path d="M44.86,118.63       c-9.141-5.87-15.19-16.13-15.19-27.81c0-18.26,14.811-33.07,33.07-33.07c0.46,0,0.92,0.01,1.37,0.029       C64.92,40.25,79.41,26.34,97.14,26.34c10.4,0,19.67,4.811,25.73,12.33" fill="none" stroke="#000000" stroke-miterlimit="10" stroke-width="6"/><path d="M154.24,68.32c5.529,5.9,8.91,13.84,8.91,22.57       c0,11.649-6.03,21.869-15.131,27.739" fill="none" stroke="#000000" stroke-miterlimit="10" stroke-width="6"/><line fill="none" stroke="#000000" stroke-linecap="round" stroke-miterlimit="10" stroke-width="6" x1="148" x2="44" y1="118" y2="118"/></g><g><path d="M122.87,38.67       c4.28,5.301,6.96,11.95,7.3,19.21c9.5,0,18.061,4.011,24.07,10.44" fill="none" stroke="#000000" stroke-linecap="round" stroke-miterlimit="10" stroke-width="6"/></g></g></g><path d="M156.49,71.01c9.4-4.31,15.93-13.8,15.93-24.81    c0-15.07-12.22-27.29-27.29-27.29c-11.29,0-20.979,6.859-25.13,16.64" fill="none" stroke="#000000" stroke-miterlimit="10" stroke-width="6"/></g><g><polyline fill="none" points="81.194,125.332     70.507,158.052 87.282,150.479 78.895,183.999   " stroke="#000000" stroke-linecap="round" stroke-miterlimit="10" stroke-width="6"/><polyline fill="none" points="115.791,125.332     107.508,150.691 120.509,144.822 114.008,170.802   " stroke="#000000" stroke-linecap="round" stroke-miterlimit="10" stroke-width="6"/></g></g></svg>