<?xml version="1.0" ?><!DOCTYPE svg  PUBLIC '-//W3C//DTD SVG 1.1//EN'  'http://www.w3.org/Graphics/SVG/1.1/DTD/svg11.dtd'><svg enable-background="new 0 0 200 200" height="200px" id="Layer_1" version="1.1" viewBox="0 0 200 200" width="200px" xml:space="preserve" xmlns="http://www.w3.org/2000/svg" xmlns:xlink="http://www.w3.org/1999/xlink"><g><g><g><g><path d="M49.86,115.63      c-9.141-5.87-15.19-16.13-15.19-27.81c0-18.26,14.811-33.07,33.07-33.07c0.46,0,0.92,0.01,1.37,0.029      C69.92,37.25,84.41,23.34,102.14,23.34c10.4,0,19.67,4.811,25.73,12.33" fill="none" stroke="#000000" stroke-miterlimit="10" stroke-width="6"/><path d="M159.24,65.32c5.529,5.9,8.91,13.84,8.91,22.57      c0,11.649-6.03,21.869-15.131,27.739" fill="none" stroke="#000000" stroke-miterlimit="10" stroke-width="6"/><line fill="none" stroke="#000000" stroke-linecap="round" stroke-miterlimit="10" stroke-width="6" x1="153" x2="49" y1="115" y2="115"/></g><g><path d="M127.87,35.67      c4.28,5.301,6.96,11.95,7.3,19.21c9.5,0,18.061,4.011,24.07,10.44" fill="none" stroke="#000000" stroke-linecap="round" stroke-miterlimit="10" stroke-width="6"/></g></g></g><polyline fill="none" points="87.194,122.332    76.507,155.052 93.282,147.479 84.895,180.999  " stroke="#000000" stroke-linecap="round" stroke-miterlimit="10" stroke-width="6"/><polyline fill="none" points="121.791,122.332    113.508,147.691 126.509,141.822 120.008,167.802  " stroke="#000000" stroke-linecap="round" stroke-miterlimit="10" stroke-width="6"/></g></svg>