<?xml version="1.0" ?><!DOCTYPE svg  PUBLIC '-//W3C//DTD SVG 1.1//EN'  'http://www.w3.org/Graphics/SVG/1.1/DTD/svg11.dtd'><svg enable-background="new 0 0 200 200" height="200px" id="Layer_1" version="1.1" viewBox="0 0 200 200" width="200px" xml:space="preserve" xmlns="http://www.w3.org/2000/svg" xmlns:xlink="http://www.w3.org/1999/xlink"><g><path d="M6.277,80.458   c72.074-47.146,123.29-14.44,160.842-0.062c10.586,4.053,26.98,1.328,26.904-12.508c-0.044-8.114-1.761-13.054-3.846-16.834" fill="none" stroke="#000000" stroke-linecap="round" stroke-miterlimit="10" stroke-width="6"/><path d="M6.277,120.101   c72.074-47.146,123.29-14.44,160.842-0.062c10.586,4.053,26.98,1.328,26.904-12.508c-0.044-8.114-1.761-13.054-3.846-16.834" fill="none" stroke="#000000" stroke-linecap="round" stroke-miterlimit="10" stroke-width="6"/><path d="M6.277,159.744   c72.074-47.146,123.29-14.441,160.842-0.063c10.586,4.053,26.98,1.328,26.904-12.508c-0.044-8.113-1.761-13.055-3.846-16.834" fill="none" stroke="#000000" stroke-linecap="round" stroke-miterlimit="10" stroke-width="6"/></g></svg>